<svg xmlns="http://www.w3.org/2000/svg" xmlns:xlink="http://www.w3.org/1999/xlink"><defs><clipPath id="clip0"><path fill="#fff" d="M0 0h24v24H0z"/></clipPath><clipPath id="clip0"><path fill="#fff" d="M0 0h24v24H0z"/></clipPath></defs><symbol id="close"><g clip-path="url(#clip0)" fill="#fff"><path d="M23.716.284a.97.97 0 00-1.37 0L.283 22.345a.97.97 0 101.371 1.371l22.061-22.06a.97.97 0 000-1.372z"/><path d="M23.716 22.345L1.655.285a.97.97 0 10-1.371 1.37l22.06 22.061a.966.966 0 001.372 0 .97.97 0 000-1.37z"/></g></symbol><symbol id="day mode"><path d="M12 18a6 6 0 110-12 6 6 0 010 12zM11 1h2v3h-2V1zm0 19h2v3h-2v-3zM3.515 4.929l1.414-1.414L7.05 5.636 5.636 7.05 3.515 4.93v-.001zM16.95 18.364l1.414-1.414 2.121 2.121-1.414 1.414-2.121-2.121zm2.121-14.85l1.414 1.415-2.121 2.121-1.414-1.414 2.121-2.121v-.001zM5.636 16.95l1.414 1.414-2.121 2.121-1.414-1.414 2.121-2.121zM23 11v2h-3v-2h3zM4 11v2H1v-2h3z" fill="#F2C94C"/></symbol><symbol id="open"><g clip-path="url(#clip0)" fill="#fff"><path d="M23.716.284a.97.97 0 00-1.37 0L.283 22.345a.97.97 0 101.371 1.371l22.061-22.06a.97.97 0 000-1.372z"/><path d="M23.716 22.345L1.655.285a.97.97 0 10-1.371 1.37l22.06 22.061a.966.966 0 001.372 0 .97.97 0 000-1.37z"/></g></symbol></svg>