<svg xmlns="http://www.w3.org/2000/svg" xmlns:xlink="http://www.w3.org/1999/xlink">
    <defs>
        <clipPath id="clip1">
            <path d="M0 0h24v24H0z" />
        </clipPath>
        <clipPath id="clip2">
            <path fill="#fff" d="M0 0h22v22H0z" />
        </clipPath>
        <clipPath id="clip3">
            <path fill="#fff" d="M0 0h86v86H0z" />
        </clipPath>
    </defs>
    <symbol id="close">
        <g clip-path="url(#clip1)">
            <path
                d="M23.716.284a.97.97 0 00-1.37 0L.283 22.345a.97.97 0 101.371 1.371l22.061-22.06a.97.97 0 000-1.372z" />
            <path
                d="M23.716 22.345L1.655.285a.97.97 0 10-1.371 1.37l22.06 22.061a.966.966 0 001.372 0 .97.97 0 000-1.37z" />
        </g>
    </symbol>
    <symbol id="day mode">
        <path
            d="M12 18a6 6 0 110-12 6 6 0 010 12zM11 1h2v3h-2V1zm0 19h2v3h-2v-3zM3.515 4.929l1.414-1.414L7.05 5.636 5.636 7.05 3.515 4.93v-.001zM16.95 18.364l1.414-1.414 2.121 2.121-1.414 1.414-2.121-2.121zm2.121-14.85l1.414 1.415-2.121 2.121-1.414-1.414 2.121-2.121v-.001zM5.636 16.95l1.414 1.414-2.121 2.121-1.414-1.414 2.121-2.121zM23 11v2h-3v-2h3zM4 11v2H1v-2h3z"
            fill="#fff" />
    </symbol>
    <symbol id="icon-closeList">
        <g clip-path="url(#clip2)">
            <path d="M11 15.537L15.537 11l1.297 1.296L11 18.13l-5.834-5.834L6.463 11 11 15.537z" fill="#262626" />
        </g>
    </symbol>
    <symbol id="icon-facebook">
        <path
            d="M50.167 48.375h8.958l3.583-14.333H50.167v-7.167c0-3.69 0-7.167 7.166-7.167h5.375V7.668c-1.168-.154-5.579-.501-10.237-.501-9.73 0-16.638 5.937-16.638 16.841v10.034h-10.75v14.333h10.75v30.458h14.334V48.375z"
            fill="#E0E0E0" />
    </symbol>
    <symbol id="icon-link">
        <path
            d="M10 6v2H5v11h11v-5h2v6a1 1 0 01-1 1H4a1 1 0 01-1-1V7a1 1 0 011-1h6zm11-3v9l-3.794-3.793-5.999 6-1.414-1.414 5.999-6L12 3h9z"
            fill="#262626" />
    </symbol>
    <symbol id="icon-mail">
        <g clip-path="url(#clip3)">
            <path
                d="M.75 10.75h64.5a3.583 3.583 0 013.583 3.583v57.334a3.583 3.583 0 01-3.583 3.583H.75a3.583 3.583 0 01-3.583-3.583V14.333A3.583 3.583 0 01.75 10.75zm32.465 31.114L10.24 22.353l-4.64 5.46 27.663 23.49 27.165-23.507-4.687-5.422-22.521 19.49h-.004z"
                fill="#E0E0E0" />
        </g>
    </symbol>
    <symbol id="icon-modalOpen">
        <path fill="#262626" d="M0 0h26v1H0zm0 7h19v1H0zm0 7h23v1H0z" />
    </symbol>
    <symbol id="icon-next">
        <path
            d="M28.975 19.708l-9.61-9.61 2.533-2.534L35.833 21.5 21.898 35.436l-2.534-2.534 9.61-9.61H7.168v-3.584h21.808z"
            fill="#BDBDBD" />
    </symbol>
    <symbol id="icon-openList">
        <path d="M11 9.926l-4.538 4.537-1.296-1.296L11 7.333l5.834 5.834-1.296 1.296L11 9.926z" fill="#83C1FA" />
    </symbol>
    <symbol id="icon-play">
        <path d="M27 16L0 31.588V.413L27 16z" fill="#83C1FA" />
    </symbol>
    <symbol id="icon-telegram">
        <path
            d="M25.443 48.345L8.638 43.121c-3.633-1.106-3.653-3.6.814-5.39L74.93 12.516c3.801-1.542 5.954.409 4.723 5.297l-11.148 52.44c-.78 3.735-3.034 4.627-6.162 2.903l-17.162-12.66-7.999 7.698c-.82.791-1.486 1.469-2.751 1.636-1.258.175-2.294-.2-3.054-2.28l-5.853-19.252-.081.054v-.007z"
            fill="#E0E0E0" />
    </symbol>
    <symbol id="logo">
        <path
            d="M2.79 15H1.04V3.727h7.038v1.507H2.79v3.57h4.844v1.477H2.789V15zm8.562-9.805V9.25h2.453c.677 0 1.2-.177 1.57-.531.37-.354.555-.854.555-1.5 0-.63-.193-1.125-.578-1.485-.386-.359-.917-.539-1.594-.539h-2.406zm0 5.47V15h-1.75V3.727h4.367c1.156 0 2.073.312 2.75.937.677.62 1.015 1.456 1.015 2.508 0 .766-.195 1.437-.586 2.016a3.043 3.043 0 01-1.601 1.203L18.07 15h-2.015l-2.297-4.336h-2.406zm12.953-7.126c1.62 0 2.903.523 3.851 1.57.953 1.047 1.43 2.467 1.43 4.258 0 1.792-.474 3.211-1.422 4.258-.948 1.042-2.234 1.563-3.86 1.563-1.624 0-2.91-.521-3.859-1.563-.948-1.047-1.422-2.466-1.422-4.258 0-1.791.474-3.21 1.422-4.258.948-1.046 2.235-1.57 3.86-1.57zm0 1.54c-1.073 0-1.925.385-2.555 1.155-.625.771-.938 1.815-.938 3.133 0 1.313.313 2.354.938 3.125.63.771 1.482 1.156 2.555 1.156 1.067 0 1.914-.385 2.539-1.156.63-.77.945-1.812.945-3.125 0-1.318-.315-2.362-.945-3.133-.625-.77-1.472-1.156-2.54-1.156z"
            fill="#fff" />
        <path d="M39.5 4.453a3.249 3.249 0 014.593 4.585l-4.594 4.6-4.592-4.6a3.251 3.251 0 014.594-4.585z"
            fill="#83C1FA" />
    </symbol>
    <symbol id="logoLight-mobile">
        <path
            d="M2.79 15H1.04V3.727h7.038v1.507H2.79v3.57h4.844v1.477H2.789V15zm8.562-9.805V9.25h2.453c.677 0 1.2-.177 1.57-.531.37-.354.555-.854.555-1.5 0-.63-.193-1.125-.578-1.485-.386-.359-.917-.539-1.594-.539h-2.406zm0 5.47V15h-1.75V3.727h4.367c1.156 0 2.073.312 2.75.937.677.62 1.015 1.456 1.015 2.508 0 .766-.195 1.437-.586 2.016a3.043 3.043 0 01-1.601 1.203L18.07 15h-2.015l-2.297-4.336h-2.406zm12.953-7.126c1.62 0 2.903.523 3.851 1.57.953 1.047 1.43 2.467 1.43 4.258 0 1.792-.474 3.211-1.422 4.258-.948 1.042-2.234 1.563-3.86 1.563-1.624 0-2.91-.521-3.859-1.563-.948-1.047-1.422-2.466-1.422-4.258 0-1.791.474-3.21 1.422-4.258.948-1.046 2.235-1.57 3.86-1.57zm0 1.54c-1.073 0-1.925.385-2.555 1.155-.625.771-.938 1.815-.938 3.133 0 1.313.313 2.354.938 3.125.63.771 1.482 1.156 2.555 1.156 1.067 0 1.914-.385 2.539-1.156.63-.77.945-1.812.945-3.125 0-1.318-.315-2.362-.945-3.133-.625-.77-1.472-1.156-2.54-1.156z"
            fill="#262626" />
        <path d="M39.5 4.453a3.25 3.25 0 014.593 4.585l-4.594 4.6-4.592-4.6a3.25 3.25 0 014.594-4.585z"
            fill="#83C1FA" />
    </symbol>
    <symbol id="night mode">
        <path
            d="M11.38 2.019a7.5 7.5 0 1010.6 10.6C21.662 17.854 17.316 22 12.001 22 6.477 22 2 17.523 2 12c0-5.315 4.146-9.661 9.38-9.981z"
            fill="#262626" />
    </symbol>
</svg>