<svg width="86" height="86" viewBox="0 0 86 86" fill="none" xmlns="http://www.w3.org/2000/svg">
    <g clip-path="url(#clip3)">
        <path
            d="M0.750082 10.75H65.2501C66.2004 10.75 67.1119 11.1275 67.7839 11.7995C68.4559 12.4715 68.8334 13.383 68.8334 14.3333V71.6667C68.8334 72.617 68.4559 73.5285 67.7839 74.2005C67.1119 74.8725 66.2004 75.25 65.2501 75.25H0.750082C-0.200278 75.25 -1.11171 74.8725 -1.78372 74.2005C-2.45572 73.5285 -2.83325 72.617 -2.83325 71.6667V14.3333C-2.83325 13.383 -2.45572 12.4715 -1.78372 11.7995C-1.11171 11.1275 -0.200278 10.75 0.750082 10.75ZM33.2151 41.8641L10.2387 22.3528L5.59833 27.8138L33.2617 51.3026L60.4269 27.7959L55.7399 22.3743L33.2187 41.8641H33.2151Z"
            fill="#E0E0E0" />
    </g>
    <defs>
        <clipPath id="clip3">
            <rect width="86" height="86" fill="white" />
        </clipPath>
    </defs>
</svg>